<?xml version="1.0" encoding="utf-8"?>
<!-- Generator: Adobe Illustrator 18.1.1, SVG Export Plug-In . SVG Version: 6.00 Build 0)  -->
<svg version="1.1" id="Layer_1" xmlns="http://www.w3.org/2000/svg" xmlns:xlink="http://www.w3.org/1999/xlink" x="0px" y="0px"
	 width="123.8px" height="59.3px" viewBox="8.5 662.8 123.8 59.3" enable-background="new 8.5 662.8 123.8 59.3"
	 xml:space="preserve">
<g>
	<path fill="#69808D" d="M38.1,713.2c-11.4,0-20.7-9.3-20.7-20.7c0-11.4,9.3-20.7,20.7-20.7c6,0,11.4,2.5,15.1,6.6l6.3-6.3
		c-5.4-5.7-13-9.2-21.4-9.2c-16.4,0-29.6,13.3-29.6,29.6s13.3,29.6,29.6,29.6c8.4,0,16-3.5,21.4-9.2l-6.3-6.3
		C49.5,710.7,44.1,713.2,38.1,713.2z"/>
	<path display="none" fill="#69808D" stroke="#1C0A00" stroke-miterlimit="10" d="M59.6,672l-6.3,6.3c3.5,3.7,5.6,8.7,5.6,14.2
		s-2.1,10.4-5.6,14.2l6.3,6.3c5.1-5.3,8.2-12.5,8.2-20.5S64.7,677.3,59.6,672z"/>
</g>
<g>
	<path fill="#93BEAB" d="M54.6,705.6l6.3,6.3c3.7-3.5,8.7-5.6,14.2-5.6c5.5,0,10.4,2.1,14.2,5.6l6.3-6.3c-5.3-5.1-12.5-8.2-20.5-8.2
		S59.9,700.5,54.6,705.6z"/>
</g>
<g>
	<path fill="#D89F6F" d="M131.4,713.1l-6.3-6.3c-3.7,3.5-8.7,5.6-14.2,5.6c-5.5,0-10.4-2.1-14.2-5.6l-6.3,6.3
		c5.3,5.1,12.5,8.2,20.5,8.2S126,718.2,131.4,713.1z"/>
</g>
<g>
	<path fill="#69808D" d="M74,664.6c-0.7,0-1.2,0.2-1.6,0.7c-0.4,0.5-0.6,1.1-0.6,1.9c0,0.8,0.2,1.4,0.6,1.9c0.4,0.4,0.9,0.7,1.6,0.7
		c0.4,0,0.9-0.1,1.5-0.2v0.6c-0.4,0.2-1,0.2-1.6,0.2c-0.9,0-1.6-0.3-2.1-0.8c-0.5-0.6-0.7-1.4-0.7-2.4c0-0.6,0.1-1.2,0.4-1.7
		c0.2-0.5,0.6-0.9,1-1.1s1-0.4,1.6-0.4c0.7,0,1.2,0.1,1.7,0.4l-0.3,0.6C74.9,664.7,74.5,664.6,74,664.6z"/>
	<path fill="#69808D" d="M80.8,667.9c0,0.8-0.2,1.4-0.6,1.8c-0.4,0.4-0.9,0.6-1.6,0.6c-0.4,0-0.8-0.1-1.1-0.3
		c-0.3-0.2-0.6-0.5-0.8-0.8s-0.3-0.8-0.3-1.3c0-0.8,0.2-1.4,0.6-1.8c0.4-0.4,0.9-0.6,1.6-0.6c0.7,0,1.2,0.2,1.6,0.7
		S80.8,667.2,80.8,667.9z M77.2,667.9c0,0.6,0.1,1.1,0.4,1.4c0.2,0.3,0.6,0.5,1.1,0.5s0.8-0.2,1.1-0.5c0.2-0.3,0.4-0.8,0.4-1.4
		c0-0.6-0.1-1-0.4-1.4c-0.2-0.3-0.6-0.5-1.1-0.5c-0.5,0-0.8,0.2-1.1,0.5S77.2,667.3,77.2,667.9z"/>
	<path fill="#69808D" d="M85.2,670.2v-3c0-0.4-0.1-0.7-0.3-0.9c-0.2-0.2-0.4-0.3-0.8-0.3c-0.5,0-0.8,0.1-1.1,0.4
		c-0.2,0.3-0.3,0.7-0.3,1.3v2.5H82v-4.7h0.6l0.1,0.6h0c0.1-0.2,0.3-0.4,0.6-0.5c0.3-0.1,0.6-0.2,0.9-0.2c0.6,0,1,0.1,1.3,0.4
		c0.3,0.3,0.4,0.7,0.4,1.3v3.1H85.2z"/>
	<path fill="#69808D" d="M90.4,669c0,0.4-0.2,0.8-0.5,1c-0.3,0.2-0.8,0.4-1.4,0.4c-0.6,0-1.1-0.1-1.5-0.3v-0.7
		c0.2,0.1,0.5,0.2,0.7,0.3s0.5,0.1,0.7,0.1c0.4,0,0.7-0.1,0.9-0.2s0.3-0.3,0.3-0.5c0-0.2-0.1-0.3-0.2-0.5s-0.5-0.3-0.9-0.5
		c-0.4-0.2-0.7-0.3-0.9-0.4s-0.3-0.3-0.4-0.4c-0.1-0.2-0.1-0.3-0.1-0.6c0-0.4,0.2-0.7,0.5-0.9s0.7-0.3,1.3-0.3c0.5,0,1,0.1,1.5,0.3
		l-0.3,0.6c-0.5-0.2-0.9-0.3-1.3-0.3c-0.3,0-0.6,0.1-0.8,0.2c-0.2,0.1-0.3,0.3-0.3,0.4c0,0.1,0,0.2,0.1,0.3c0.1,0.1,0.2,0.2,0.3,0.3
		c0.1,0.1,0.4,0.2,0.8,0.3c0.6,0.2,0.9,0.4,1.1,0.6S90.4,668.7,90.4,669z"/>
	<path fill="#69808D" d="M95.6,667.9c0,0.8-0.2,1.4-0.6,1.8c-0.4,0.4-0.9,0.6-1.6,0.6c-0.4,0-0.8-0.1-1.1-0.3
		c-0.3-0.2-0.6-0.5-0.8-0.8s-0.3-0.8-0.3-1.3c0-0.8,0.2-1.4,0.6-1.8c0.4-0.4,0.9-0.6,1.6-0.6c0.7,0,1.2,0.2,1.6,0.7
		S95.6,667.2,95.6,667.9z M92,667.9c0,0.6,0.1,1.1,0.4,1.4c0.2,0.3,0.6,0.5,1.1,0.5c0.5,0,0.8-0.2,1.1-0.5c0.2-0.3,0.4-0.8,0.4-1.4
		c0-0.6-0.1-1-0.4-1.4c-0.2-0.3-0.6-0.5-1.1-0.5c-0.5,0-0.8,0.2-1.1,0.5S92,667.3,92,667.9z"/>
	<path fill="#69808D" d="M99,665.5c0.2,0,0.4,0,0.6,0.1l-0.1,0.7c-0.2,0-0.4-0.1-0.5-0.1c-0.4,0-0.7,0.2-1,0.5
		c-0.3,0.3-0.4,0.7-0.4,1.1v2.5h-0.7v-4.7h0.6l0.1,0.9h0c0.2-0.3,0.4-0.5,0.6-0.7C98.4,665.6,98.7,665.5,99,665.5z"/>
	<path fill="#69808D" d="M101.9,669.7c0.1,0,0.2,0,0.4,0c0.1,0,0.2,0,0.3-0.1v0.5c-0.1,0-0.2,0.1-0.3,0.1s-0.3,0-0.4,0
		c-0.9,0-1.4-0.5-1.4-1.4v-2.8h-0.7v-0.3l0.7-0.3l0.3-1h0.4v1.1h1.4v0.6h-1.4v2.8c0,0.3,0.1,0.5,0.2,0.6
		C101.5,669.7,101.7,669.7,101.9,669.7z"/>
	<path fill="#69808D" d="M103.4,664.3c0-0.2,0-0.3,0.1-0.4c0.1-0.1,0.2-0.1,0.3-0.1c0.1,0,0.2,0,0.3,0.1c0.1,0.1,0.1,0.2,0.1,0.4
		c0,0.2,0,0.3-0.1,0.4c-0.1,0.1-0.2,0.1-0.3,0.1c-0.1,0-0.2,0-0.3-0.1C103.5,664.6,103.4,664.5,103.4,664.3z M104.2,670.2h-0.7v-4.7
		h0.7V670.2z"/>
	<path fill="#69808D" d="M106.4,665.6v3c0,0.4,0.1,0.7,0.3,0.9c0.2,0.2,0.4,0.3,0.8,0.3c0.5,0,0.8-0.1,1.1-0.4
		c0.2-0.3,0.3-0.7,0.3-1.3v-2.5h0.7v4.7H109l-0.1-0.6h0c-0.1,0.2-0.3,0.4-0.6,0.5c-0.3,0.1-0.6,0.2-0.9,0.2c-0.6,0-1-0.1-1.3-0.4
		s-0.4-0.7-0.4-1.3v-3.1H106.4z"/>
	<path fill="#69808D" d="M117,670.2v-3c0-0.4-0.1-0.7-0.2-0.8s-0.4-0.3-0.7-0.3c-0.4,0-0.8,0.1-1,0.4c-0.2,0.3-0.3,0.6-0.3,1.2v2.6
		H114v-3c0-0.4-0.1-0.7-0.2-0.8s-0.4-0.3-0.7-0.3c-0.4,0-0.8,0.1-1,0.4c-0.2,0.3-0.3,0.7-0.3,1.3v2.5h-0.7v-4.7h0.6l0.1,0.6h0
		c0.1-0.2,0.3-0.4,0.6-0.5c0.2-0.1,0.5-0.2,0.8-0.2c0.7,0,1.2,0.3,1.4,0.8h0c0.1-0.2,0.3-0.4,0.6-0.6c0.3-0.1,0.6-0.2,0.9-0.2
		c0.5,0,0.9,0.1,1.2,0.4c0.3,0.3,0.4,0.7,0.4,1.3v3.1H117z"/>
	<path fill="#69808D" d="M125.5,667.9c0,0.8-0.2,1.4-0.6,1.8c-0.4,0.4-0.9,0.6-1.6,0.6c-0.4,0-0.8-0.1-1.1-0.3
		c-0.3-0.2-0.6-0.5-0.8-0.8s-0.3-0.8-0.3-1.3c0-0.8,0.2-1.4,0.6-1.8c0.4-0.4,0.9-0.6,1.6-0.6c0.7,0,1.2,0.2,1.6,0.7
		S125.5,667.2,125.5,667.9z M121.9,667.9c0,0.6,0.1,1.1,0.4,1.4c0.2,0.3,0.6,0.5,1.1,0.5c0.5,0,0.8-0.2,1.1-0.5
		c0.2-0.3,0.4-0.8,0.4-1.4c0-0.6-0.1-1-0.4-1.4c-0.2-0.3-0.6-0.5-1.1-0.5c-0.5,0-0.8,0.2-1.1,0.5S121.9,667.3,121.9,667.9z"/>
	<path fill="#69808D" d="M130,670.2v-3c0-0.4-0.1-0.7-0.3-0.9c-0.2-0.2-0.4-0.3-0.8-0.3c-0.5,0-0.8,0.1-1.1,0.4
		c-0.2,0.3-0.3,0.7-0.3,1.3v2.5h-0.7v-4.7h0.6l0.1,0.6h0c0.1-0.2,0.3-0.4,0.6-0.5c0.3-0.1,0.6-0.2,0.9-0.2c0.6,0,1,0.1,1.3,0.4
		c0.3,0.3,0.4,0.7,0.4,1.3v3.1H130z"/>
	<path fill="#69808D" d="M92.5,680.7v-6.2h0.7v6.2H92.5z"/>
	<path fill="#69808D" d="M98,680.7v-3c0-0.4-0.1-0.7-0.3-0.9c-0.2-0.2-0.4-0.3-0.8-0.3c-0.5,0-0.8,0.1-1.1,0.4
		c-0.2,0.3-0.3,0.7-0.3,1.3v2.5h-0.7v-4.7h0.6l0.1,0.6h0c0.1-0.2,0.3-0.4,0.6-0.5c0.3-0.1,0.6-0.2,0.9-0.2c0.6,0,1,0.1,1.3,0.4
		c0.3,0.3,0.4,0.7,0.4,1.3v3.1H98z"/>
	<path fill="#69808D" d="M103.3,680.1L103.3,680.1c-0.4,0.5-0.9,0.7-1.5,0.7c-0.6,0-1.1-0.2-1.4-0.6c-0.3-0.4-0.5-1-0.5-1.8
		s0.2-1.4,0.5-1.8c0.3-0.4,0.8-0.6,1.4-0.6c0.6,0,1.1,0.2,1.5,0.7h0.1l0-0.3l0-0.3v-1.9h0.7v6.6h-0.6L103.3,680.1z M101.9,680.2
		c0.5,0,0.8-0.1,1.1-0.4s0.3-0.7,0.3-1.3v-0.1c0-0.7-0.1-1.1-0.3-1.4s-0.6-0.4-1.1-0.4c-0.4,0-0.7,0.2-1,0.5s-0.3,0.8-0.3,1.4
		c0,0.6,0.1,1,0.3,1.4C101.2,680.1,101.5,680.2,101.9,680.2z"/>
	<path fill="#69808D" d="M105.5,674.8c0-0.2,0-0.3,0.1-0.4c0.1-0.1,0.2-0.1,0.3-0.1c0.1,0,0.2,0,0.3,0.1c0.1,0.1,0.1,0.2,0.1,0.4
		c0,0.2,0,0.3-0.1,0.4c-0.1,0.1-0.2,0.1-0.3,0.1c-0.1,0-0.2,0-0.3-0.1C105.5,675.1,105.5,675,105.5,674.8z M106.2,680.7h-0.7v-4.7
		h0.7V680.7z"/>
	<path fill="#69808D" d="M108.8,680.7l-1.8-4.7h0.8l1,2.8c0.2,0.6,0.4,1.1,0.4,1.3h0c0-0.2,0.1-0.5,0.3-0.9c0.2-0.5,0.5-1.5,1.1-3.1
		h0.8l-1.8,4.7H108.8z"/>
	<path fill="#69808D" d="M112,674.8c0-0.2,0-0.3,0.1-0.4c0.1-0.1,0.2-0.1,0.3-0.1c0.1,0,0.2,0,0.3,0.1c0.1,0.1,0.1,0.2,0.1,0.4
		c0,0.2,0,0.3-0.1,0.4c-0.1,0.1-0.2,0.1-0.3,0.1c-0.1,0-0.2,0-0.3-0.1C112.1,675.1,112,675,112,674.8z M112.8,680.7h-0.7v-4.7h0.7
		V680.7z"/>
	<path fill="#69808D" d="M117.5,680.1L117.5,680.1c-0.4,0.5-0.9,0.7-1.5,0.7c-0.6,0-1.1-0.2-1.4-0.6c-0.3-0.4-0.5-1-0.5-1.8
		s0.2-1.4,0.5-1.8c0.3-0.4,0.8-0.6,1.4-0.6c0.6,0,1.1,0.2,1.5,0.7h0.1l0-0.3l0-0.3v-1.9h0.7v6.6h-0.6L117.5,680.1z M116.1,680.2
		c0.5,0,0.8-0.1,1.1-0.4s0.3-0.7,0.3-1.3v-0.1c0-0.7-0.1-1.1-0.3-1.4s-0.6-0.4-1.1-0.4c-0.4,0-0.7,0.2-1,0.5s-0.3,0.8-0.3,1.4
		c0,0.6,0.1,1,0.3,1.4C115.3,680.1,115.7,680.2,116.1,680.2z"/>
	<path fill="#69808D" d="M120.3,676.1v3c0,0.4,0.1,0.7,0.3,0.9c0.2,0.2,0.4,0.3,0.8,0.3c0.5,0,0.8-0.1,1.1-0.4
		c0.2-0.3,0.3-0.7,0.3-1.3v-2.5h0.7v4.7H123l-0.1-0.6h0c-0.1,0.2-0.3,0.4-0.6,0.5c-0.3,0.1-0.6,0.2-0.9,0.2c-0.6,0-1-0.1-1.3-0.4
		s-0.4-0.7-0.4-1.3v-3.1H120.3z"/>
	<path fill="#69808D" d="M127.9,680.7l-0.1-0.7h0c-0.2,0.3-0.5,0.5-0.7,0.6c-0.2,0.1-0.5,0.2-0.9,0.2c-0.5,0-0.8-0.1-1.1-0.4
		c-0.3-0.2-0.4-0.6-0.4-1c0-0.9,0.8-1.4,2.3-1.5l0.8,0v-0.3c0-0.4-0.1-0.6-0.2-0.8c-0.2-0.2-0.4-0.3-0.8-0.3c-0.4,0-0.8,0.1-1.3,0.4
		l-0.2-0.5c0.2-0.1,0.5-0.2,0.8-0.3s0.6-0.1,0.8-0.1c0.6,0,1,0.1,1.2,0.4c0.3,0.2,0.4,0.6,0.4,1.2v3.2H127.9z M126.3,680.2
		c0.4,0,0.8-0.1,1-0.4c0.3-0.2,0.4-0.6,0.4-1v-0.4l-0.7,0c-0.6,0-1,0.1-1.2,0.3c-0.2,0.2-0.4,0.4-0.4,0.7c0,0.3,0.1,0.5,0.2,0.6
		S126,680.2,126.3,680.2z"/>
	<path fill="#69808D" d="M130.6,680.7h-0.7v-6.6h0.7V680.7z"/>
	<path fill="#69808D" d="M82.3,688.1c0,1-0.3,1.8-0.8,2.4c-0.6,0.5-1.4,0.8-2.4,0.8h-1.7V685h1.9c1,0,1.7,0.3,2.3,0.8
		S82.3,687.1,82.3,688.1z M81.5,688.1c0-0.8-0.2-1.4-0.6-1.8c-0.4-0.4-1-0.6-1.8-0.6H78v5h0.9c0.9,0,1.5-0.2,2-0.6
		C81.3,689.5,81.5,688.9,81.5,688.1z"/>
	<path fill="#69808D" d="M85.6,691.3c-0.7,0-1.2-0.2-1.6-0.6c-0.4-0.4-0.6-1-0.6-1.8c0-0.8,0.2-1.4,0.6-1.8s0.9-0.7,1.5-0.7
		c0.6,0,1.1,0.2,1.4,0.6s0.5,0.9,0.5,1.5v0.4h-3.2c0,0.5,0.2,1,0.4,1.3c0.3,0.3,0.6,0.4,1.1,0.4c0.5,0,1-0.1,1.5-0.3v0.6
		c-0.3,0.1-0.5,0.2-0.7,0.2S85.9,691.3,85.6,691.3z M85.4,687.1c-0.4,0-0.7,0.1-0.9,0.4c-0.2,0.2-0.4,0.6-0.4,1h2.4
		c0-0.4-0.1-0.8-0.3-1C86,687.2,85.7,687.1,85.4,687.1z"/>
	<path fill="#69808D" d="M89.5,691.2l-1.8-4.7h0.8l1,2.8c0.2,0.6,0.4,1.1,0.4,1.3h0c0-0.2,0.1-0.5,0.3-0.9c0.2-0.5,0.5-1.5,1.1-3.1
		h0.8l-1.8,4.7H89.5z"/>
	<path fill="#69808D" d="M94.8,691.3c-0.7,0-1.2-0.2-1.6-0.6c-0.4-0.4-0.6-1-0.6-1.8c0-0.8,0.2-1.4,0.6-1.8c0.4-0.4,0.9-0.7,1.5-0.7
		c0.6,0,1.1,0.2,1.4,0.6s0.5,0.9,0.5,1.5v0.4h-3.2c0,0.5,0.2,1,0.4,1.3c0.3,0.3,0.6,0.4,1.1,0.4c0.5,0,1-0.1,1.5-0.3v0.6
		c-0.2,0.1-0.5,0.2-0.7,0.2S95.2,691.3,94.8,691.3z M94.7,687.1c-0.4,0-0.7,0.1-0.9,0.4c-0.2,0.2-0.4,0.6-0.4,1h2.4
		c0-0.4-0.1-0.8-0.3-1C95.3,687.2,95,687.1,94.7,687.1z"/>
	<path fill="#69808D" d="M98.5,691.2h-0.7v-6.6h0.7V691.2z"/>
	<path fill="#69808D" d="M104,688.9c0,0.8-0.2,1.4-0.6,1.8c-0.4,0.4-0.9,0.6-1.6,0.6c-0.4,0-0.8-0.1-1.1-0.3
		c-0.3-0.2-0.6-0.5-0.8-0.8s-0.3-0.8-0.3-1.3c0-0.8,0.2-1.4,0.6-1.8c0.4-0.4,0.9-0.6,1.6-0.6c0.7,0,1.2,0.2,1.6,0.7
		S104,688.1,104,688.9z M100.5,688.9c0,0.6,0.1,1.1,0.4,1.4c0.2,0.3,0.6,0.5,1.1,0.5c0.5,0,0.8-0.2,1.1-0.5c0.2-0.3,0.4-0.8,0.4-1.4
		c0-0.6-0.1-1-0.4-1.4c-0.2-0.3-0.6-0.5-1.1-0.5c-0.5,0-0.8,0.2-1.1,0.5S100.5,688.3,100.5,688.9z"/>
	<path fill="#69808D" d="M107.4,691.3c-0.3,0-0.6-0.1-0.8-0.2s-0.5-0.3-0.6-0.5h-0.1c0,0.3,0.1,0.5,0.1,0.8v1.9h-0.7v-6.8h0.6
		l0.1,0.6h0c0.2-0.3,0.4-0.4,0.6-0.6c0.2-0.1,0.5-0.2,0.8-0.2c0.6,0,1.1,0.2,1.4,0.6c0.3,0.4,0.5,1,0.5,1.8c0,0.8-0.2,1.4-0.5,1.8
		C108.5,691.1,108.1,691.3,107.4,691.3z M107.3,687.1c-0.5,0-0.8,0.1-1,0.4c-0.2,0.3-0.3,0.7-0.3,1.3v0.2c0,0.7,0.1,1.1,0.3,1.4
		c0.2,0.3,0.6,0.4,1.1,0.4c0.4,0,0.7-0.2,1-0.5c0.2-0.3,0.3-0.8,0.3-1.4c0-0.6-0.1-1-0.3-1.3C108.1,687.2,107.8,687.1,107.3,687.1z"
		/>
	<path fill="#69808D" d="M116.6,691.2v-3c0-0.4-0.1-0.7-0.2-0.8s-0.4-0.3-0.7-0.3c-0.4,0-0.8,0.1-1,0.4c-0.2,0.3-0.3,0.6-0.3,1.2
		v2.6h-0.7v-3c0-0.4-0.1-0.7-0.2-0.8s-0.4-0.3-0.7-0.3c-0.4,0-0.8,0.1-1,0.4c-0.2,0.3-0.3,0.7-0.3,1.3v2.5h-0.7v-4.7h0.6l0.1,0.6h0
		c0.1-0.2,0.3-0.4,0.6-0.5c0.2-0.1,0.5-0.2,0.8-0.2c0.7,0,1.2,0.3,1.4,0.8h0c0.1-0.2,0.3-0.4,0.6-0.6c0.3-0.1,0.6-0.2,0.9-0.2
		c0.5,0,0.9,0.1,1.2,0.4c0.3,0.3,0.4,0.7,0.4,1.3v3.1H116.6z"/>
	<path fill="#69808D" d="M120.7,691.3c-0.7,0-1.2-0.2-1.6-0.6c-0.4-0.4-0.6-1-0.6-1.8c0-0.8,0.2-1.4,0.6-1.8
		c0.4-0.4,0.9-0.7,1.5-0.7c0.6,0,1.1,0.2,1.4,0.6s0.5,0.9,0.5,1.5v0.4h-3.2c0,0.5,0.2,1,0.4,1.3c0.3,0.3,0.6,0.4,1.1,0.4
		c0.5,0,1-0.1,1.5-0.3v0.6c-0.2,0.1-0.5,0.2-0.7,0.2S121.1,691.3,120.7,691.3z M120.5,687.1c-0.4,0-0.7,0.1-0.9,0.4
		c-0.2,0.2-0.4,0.6-0.4,1h2.4c0-0.4-0.1-0.8-0.3-1C121.2,687.2,120.9,687.1,120.5,687.1z"/>
	<path fill="#69808D" d="M126.9,691.2v-3c0-0.4-0.1-0.7-0.3-0.9c-0.2-0.2-0.4-0.3-0.8-0.3c-0.5,0-0.8,0.1-1.1,0.4
		c-0.2,0.3-0.3,0.7-0.3,1.3v2.5h-0.7v-4.7h0.6l0.1,0.6h0c0.1-0.2,0.3-0.4,0.6-0.5c0.3-0.1,0.6-0.2,0.9-0.2c0.6,0,1,0.1,1.3,0.4
		c0.3,0.3,0.4,0.7,0.4,1.3v3.1H126.9z"/>
	<path fill="#69808D" d="M130.5,690.7c0.1,0,0.2,0,0.4,0c0.1,0,0.2,0,0.3-0.1v0.5c-0.1,0-0.2,0.1-0.3,0.1s-0.3,0-0.4,0
		c-0.9,0-1.4-0.5-1.4-1.4v-2.8h-0.7v-0.3l0.7-0.3l0.3-1h0.4v1.1h1.4v0.6h-1.4v2.8c0,0.3,0.1,0.5,0.2,0.6
		C130.1,690.7,130.3,690.7,130.5,690.7z"/>
</g>
</svg>
